<svg xmlns="http://www.w3.org/2000/svg" xmlns:xlink="http://www.w3.org/1999/xlink" width="200" zoomAndPan="magnify" viewBox="0 0 150 112.499997" height="150" preserveAspectRatio="xMidYMid meet" version="1.0"><defs><clipPath id="e6ad71b3e4"><path d="M 3.355469 26.558594 L 31.730469 26.558594 L 31.730469 61.652344 L 3.355469 61.652344 Z M 3.355469 26.558594 " clip-rule="nonzero"/></clipPath><clipPath id="432c762182"><path d="M 17.5 34.253906 L 35.417969 34.253906 L 35.417969 63.375 L 17.5 63.375 Z M 17.5 34.253906 " clip-rule="nonzero"/></clipPath><clipPath id="d98cab07f9"><path d="M 31.496094 44.265625 L 47.175781 44.265625 L 47.175781 65.917969 L 31.496094 65.917969 Z M 31.496094 44.265625 " clip-rule="nonzero"/></clipPath><clipPath id="1eb4f267ab"><path d="M 44.929688 44.949219 L 60.613281 44.949219 L 60.613281 65.113281 L 44.929688 65.113281 Z M 44.929688 44.949219 " clip-rule="nonzero"/></clipPath><clipPath id="d3749e6f17"><path d="M 59.101562 44.265625 L 75.53125 44.265625 L 75.53125 76.371094 L 59.101562 76.371094 Z M 59.101562 44.265625 " clip-rule="nonzero"/></clipPath><clipPath id="f57b241b72"><path d="M 51 59 L 149 59 L 149 74 L 51 74 Z M 51 59 " clip-rule="nonzero"/></clipPath><clipPath id="1a0f2f3bfb"><path d="M 51 68.175781 L 145.335938 48.71875 L 150.011719 71.386719 L 55.675781 90.847656 Z M 51 68.175781 " clip-rule="nonzero"/></clipPath><clipPath id="1734441833"><path d="M 145.046875 48.777344 L 50.714844 68.238281 L 55.390625 90.90625 L 149.726562 71.445312 Z M 145.046875 48.777344 " clip-rule="nonzero"/></clipPath><clipPath id="f3572a0127"><path d="M 73.222656 41.671875 L 94.128906 41.671875 L 94.128906 65.566406 L 73.222656 65.566406 Z M 73.222656 41.671875 " clip-rule="nonzero"/></clipPath><clipPath id="8dd5e14b9a"><path d="M 92.15625 42.289062 L 113.8125 42.289062 L 113.8125 63.941406 L 92.15625 63.941406 Z M 92.15625 42.289062 " clip-rule="nonzero"/></clipPath><clipPath id="7a0f17c5c8"><path d="M 108.753906 42.015625 L 127.417969 42.015625 L 127.417969 65.160156 L 108.753906 65.160156 Z M 108.753906 42.015625 " clip-rule="nonzero"/></clipPath><clipPath id="eceb55372f"><path d="M 124.5 34.253906 L 143.914062 34.253906 L 143.914062 66.359375 L 124.5 66.359375 Z M 124.5 34.253906 " clip-rule="nonzero"/></clipPath></defs><g clip-path="url(#e6ad71b3e4)"><path fill="#ffffff" d="M 30.894531 47.695312 C 30.277344 46.601562 29.414062 45.726562 28.382812 45.007812 C 27.28125 44.246094 26.066406 43.699219 24.824219 43.207031 C 23.3125 42.609375 21.757812 42.136719 20.210938 41.648438 C 18.734375 41.183594 17.261719 40.699219 15.84375 40.066406 C 14.789062 39.597656 13.765625 39.070312 12.847656 38.363281 C 12.128906 37.808594 11.503906 37.175781 11.09375 36.359375 C 10.453125 35.074219 10.359375 33.753906 10.894531 32.414062 C 11.28125 31.441406 11.949219 30.679688 12.753906 30.023438 C 13.347656 29.546875 14.039062 29.273438 14.757812 29.054688 C 15.785156 28.738281 16.839844 28.5625 17.910156 28.492188 C 18.714844 28.4375 19.519531 28.441406 20.324219 28.523438 C 20.980469 28.585938 21.632812 28.695312 22.273438 28.851562 C 23.476562 29.144531 24.597656 29.625 25.605469 30.34375 C 25.683594 30.398438 25.703125 30.441406 25.65625 30.535156 C 25.375 31.082031 25.15625 31.652344 25 32.246094 C 24.746094 33.222656 24.621094 34.210938 24.785156 35.21875 C 24.855469 35.640625 24.96875 36.050781 25.238281 36.398438 C 25.488281 36.722656 25.820312 36.855469 26.21875 36.734375 C 26.511719 36.644531 26.800781 36.519531 27.074219 36.382812 C 27.542969 36.140625 27.996094 35.875 28.371094 35.5 C 29.542969 34.3125 29.757812 32.488281 28.902344 31.027344 C 28.5625 30.449219 28.128906 29.949219 27.601562 29.53125 C 27.546875 29.488281 27.511719 29.453125 27.554688 29.375 C 27.917969 28.757812 28.351562 28.199219 28.894531 27.722656 C 29.023438 27.609375 29.160156 27.582031 29.3125 27.632812 C 29.421875 27.667969 29.519531 27.664062 29.613281 27.613281 C 29.941406 27.449219 30.269531 27.28125 30.585938 27.105469 C 30.738281 27.019531 30.875 26.910156 31.011719 26.800781 C 31.101562 26.726562 31.09375 26.652344 30.976562 26.617188 C 30.875 26.585938 30.765625 26.566406 30.660156 26.582031 C 30.464844 26.617188 30.269531 26.65625 30.082031 26.730469 C 28.851562 27.21875 27.746094 27.894531 26.832031 28.859375 C 26.773438 28.921875 26.730469 28.929688 26.652344 28.882812 C 25.019531 27.929688 23.226562 27.539062 21.359375 27.421875 C 20.292969 27.355469 19.234375 27.421875 18.175781 27.585938 C 17.480469 27.695312 16.792969 27.839844 16.117188 28.050781 C 14.496094 28.554688 13.011719 29.324219 11.640625 30.316406 C 10.84375 30.894531 10.128906 31.558594 9.605469 32.394531 C 8.527344 34.113281 8.484375 35.867188 9.492188 37.632812 C 9.929688 38.402344 10.574219 38.988281 11.28125 39.511719 C 12.296875 40.257812 13.421875 40.804688 14.578125 41.296875 C 15.757812 41.792969 16.976562 42.203125 18.195312 42.589844 C 19.4375 42.984375 20.675781 43.378906 21.90625 43.796875 C 23.199219 44.238281 24.457031 44.75 25.648438 45.410156 C 26.734375 46.011719 27.703125 46.753906 28.480469 47.722656 C 29.578125 49.085938 30.035156 50.617188 29.742188 52.34375 C 29.390625 54.445312 28.402344 56.195312 26.753906 57.578125 C 25.910156 58.289062 24.945312 58.796875 23.929688 59.210938 C 22.976562 59.597656 21.992188 59.882812 20.992188 60.113281 C 20.050781 60.328125 19.097656 60.46875 18.132812 60.527344 C 17.144531 60.589844 16.160156 60.558594 15.171875 60.449219 C 14.367188 60.359375 13.570312 60.234375 12.785156 60.042969 C 11.445312 59.71875 10.171875 59.21875 8.957031 58.582031 C 8.078125 58.117188 7.265625 57.558594 6.570312 56.839844 C 5.726562 55.96875 5.269531 54.929688 5.191406 53.726562 C 5.125 52.742188 5.3125 51.789062 5.609375 50.855469 C 5.953125 49.785156 6.480469 48.800781 7.082031 47.855469 C 7.597656 47.035156 8.121094 46.21875 8.640625 45.402344 C 8.675781 45.347656 8.707031 45.285156 8.738281 45.222656 C 8.730469 45.210938 8.71875 45.199219 8.714844 45.1875 C 8.628906 45.210938 8.539062 45.222656 8.460938 45.265625 C 8.109375 45.449219 7.761719 45.636719 7.414062 45.828125 C 7.222656 45.9375 7.074219 46.089844 6.949219 46.265625 C 6.726562 46.59375 6.5 46.917969 6.285156 47.25 C 5.695312 48.160156 5.082031 49.058594 4.582031 50.027344 C 3.945312 51.253906 3.511719 52.542969 3.417969 53.929688 C 3.355469 54.929688 3.53125 55.882812 4.019531 56.769531 C 4.4375 57.53125 5.039062 58.128906 5.726562 58.648438 C 7.050781 59.652344 8.5625 60.304688 10.136719 60.816406 C 11.078125 61.121094 12.050781 61.324219 13.035156 61.433594 C 13.707031 61.503906 14.375 61.574219 15.046875 61.601562 C 16.191406 61.644531 17.324219 61.542969 18.449219 61.351562 C 19.523438 61.164062 20.574219 60.902344 21.605469 60.5625 C 22.949219 60.125 24.226562 59.542969 25.457031 58.855469 C 26.65625 58.191406 27.792969 57.441406 28.792969 56.496094 C 30.304688 55.0625 31.21875 53.324219 31.53125 51.277344 C 31.730469 50.019531 31.527344 48.816406 30.894531 47.695312 Z M 26.582031 32.203125 C 26.613281 31.992188 26.664062 31.789062 26.707031 31.578125 C 26.710938 31.542969 26.726562 31.507812 26.75 31.433594 C 27.246094 32.09375 27.589844 32.777344 27.652344 33.578125 C 27.707031 34.289062 27.527344 34.949219 27.183594 35.597656 C 27.113281 35.527344 27.054688 35.476562 27.003906 35.417969 C 26.824219 35.199219 26.71875 34.9375 26.644531 34.667969 C 26.421875 33.851562 26.453125 33.03125 26.582031 32.203125 Z M 26.582031 32.203125 " fill-opacity="1" fill-rule="nonzero"/></g><g clip-path="url(#432c762182)"><path fill="#ffffff" d="M 19.207031 56.582031 C 19.28125 56.039062 19.5625 55.160156 20.046875 53.941406 C 20.523438 52.757812 21.113281 51.636719 21.820312 50.578125 C 22.261719 49.925781 22.785156 49.34375 23.386719 48.835938 C 23.929688 48.351562 24.480469 48.109375 25.039062 48.109375 C 25.679688 48.089844 26.195312 48.28125 26.582031 48.6875 C 26.964844 49.09375 27.257812 49.632812 27.453125 50.308594 C 27.683594 51.117188 27.808594 52.058594 27.832031 53.121094 C 27.851562 54.1875 27.832031 55.273438 27.769531 56.375 C 27.691406 58 27.601562 59.460938 27.507812 60.757812 C 27.414062 62.054688 27.527344 62.730469 27.851562 62.789062 C 28.085938 62.851562 28.328125 62.800781 28.585938 62.644531 C 28.882812 62.453125 29.152344 62.230469 29.394531 61.976562 C 29.9375 61.433594 30.476562 60.691406 31.019531 59.738281 C 31.558594 58.789062 32.082031 57.824219 32.589844 56.839844 C 33.089844 55.8125 33.535156 54.847656 33.925781 53.941406 C 34.316406 53.039062 34.59375 52.359375 34.765625 51.914062 C 34.871094 51.910156 34.980469 51.921875 35.085938 51.941406 C 35.203125 51.960938 35.308594 51.996094 35.410156 52.054688 C 35.234375 52.519531 34.945312 53.234375 34.539062 54.203125 C 34.132812 55.167969 33.648438 56.175781 33.082031 57.21875 C 32.789062 57.78125 32.492188 58.332031 32.183594 58.871094 C 31.875 59.414062 31.566406 59.9375 31.253906 60.441406 C 30.65625 61.351562 30.054688 62.085938 29.453125 62.648438 C 28.949219 63.113281 28.476562 63.355469 28.035156 63.375 C 27.945312 63.375 27.855469 63.363281 27.769531 63.34375 C 27.191406 63.226562 26.746094 62.914062 26.429688 62.414062 C 26.121094 61.929688 25.90625 61.328125 25.792969 60.613281 C 25.667969 59.785156 25.617188 58.953125 25.644531 58.121094 C 25.664062 57.207031 25.714844 56.289062 25.792969 55.363281 C 25.832031 54.765625 25.867188 54.183594 25.90625 53.621094 C 25.941406 53.0625 25.980469 52.511719 26.019531 51.96875 C 26.039062 51.023438 25.96875 50.242188 25.816406 49.625 C 25.660156 49.003906 25.324219 48.695312 24.800781 48.691406 C 24.164062 48.691406 23.417969 49.308594 22.566406 50.546875 C 21.675781 51.855469 20.96875 53.257812 20.445312 54.75 C 20.121094 55.582031 19.859375 56.433594 19.664062 57.304688 C 19.476562 58.074219 19.371094 58.859375 19.339844 59.652344 C 19.226562 60.117188 18.914062 60.316406 18.410156 60.257812 C 17.902344 60.199219 17.632812 59.714844 17.601562 58.8125 C 17.601562 57.320312 17.582031 55.640625 17.539062 53.765625 C 17.519531 52.566406 17.511719 51.359375 17.511719 50.140625 L 17.511719 48.085938 C 17.53125 46.832031 17.570312 45.601562 17.625 44.402344 C 17.675781 43.253906 17.785156 42.113281 17.949219 40.976562 C 18.199219 39.003906 18.625 37.390625 19.226562 36.132812 C 19.824219 34.878906 20.648438 34.28125 21.691406 34.332031 L 21.839844 34.332031 C 22.242188 34.34375 22.589844 34.492188 22.882812 34.765625 C 23.195312 35.09375 23.429688 35.472656 23.578125 35.898438 C 23.890625 36.808594 23.996094 38 23.902344 39.464844 C 23.804688 40.933594 23.46875 42.527344 22.886719 44.253906 C 22.398438 45.773438 21.78125 47.234375 21.03125 48.636719 C 20.480469 49.695312 19.863281 50.710938 19.175781 51.6875 L 19.175781 51.828125 C 19.136719 53.703125 19.148438 55.289062 19.207031 56.582031 Z M 20.472656 48.558594 C 21.109375 47.265625 21.648438 45.933594 22.089844 44.558594 C 22.570312 43.042969 22.898438 41.492188 23.074219 39.910156 C 23.230469 38.441406 23.222656 37.269531 23.046875 36.398438 C 22.96875 35.914062 22.832031 35.535156 22.640625 35.265625 C 22.449219 34.996094 22.21875 34.851562 21.945312 34.832031 C 21.714844 34.832031 21.503906 34.984375 21.308594 35.296875 C 21.117188 35.605469 20.933594 36.039062 20.761719 36.601562 C 20.433594 37.644531 20.164062 39.019531 19.953125 40.722656 C 19.742188 42.421875 19.558594 44.222656 19.402344 46.117188 C 19.304688 47.703125 19.226562 49.261719 19.167969 50.789062 C 19.660156 50.078125 20.09375 49.335938 20.472656 48.558594 Z M 20.472656 48.558594 " fill-opacity="1" fill-rule="nonzero"/></g><g clip-path="url(#d98cab07f9)"><path fill="#ffffff" d="M 34.898438 48.40625 C 35.429688 48.765625 36.085938 49.019531 36.867188 49.164062 C 37.648438 49.3125 38.539062 49.3125 39.539062 49.164062 C 39.90625 49.1875 40.050781 49.652344 39.96875 50.554688 C 39.890625 51.457031 39.714844 52.554688 39.445312 53.84375 C 39.28125 54.558594 39.117188 55.296875 38.953125 56.054688 C 38.789062 56.816406 38.617188 57.582031 38.429688 58.359375 C 38.054688 59.933594 37.765625 61.523438 37.570312 63.132812 C 37.410156 64.546875 37.617188 65.335938 38.1875 65.503906 C 38.523438 65.589844 38.851562 65.570312 39.171875 65.441406 C 39.535156 65.292969 39.871094 65.09375 40.179688 64.839844 C 40.839844 64.3125 41.507812 63.574219 42.179688 62.628906 C 42.839844 61.695312 43.453125 60.726562 44.019531 59.726562 C 44.613281 58.695312 45.125 57.714844 45.554688 56.785156 C 45.984375 55.855469 46.292969 55.171875 46.476562 54.730469 C 46.601562 54.710938 46.722656 54.710938 46.84375 54.730469 C 46.972656 54.742188 47.085938 54.796875 47.179688 54.886719 L 46.722656 55.929688 C 46.535156 56.351562 46.332031 56.804688 46.109375 57.289062 C 45.65625 58.214844 45.132812 59.203125 44.539062 60.257812 C 43.957031 61.289062 43.300781 62.269531 42.574219 63.199219 C 41.855469 64.082031 41.121094 64.800781 40.359375 65.347656 C 39.792969 65.722656 39.230469 65.914062 38.675781 65.914062 C 38.46875 65.914062 38.265625 65.894531 38.0625 65.851562 C 37.671875 65.746094 37.34375 65.539062 37.082031 65.222656 C 36.777344 64.859375 36.5625 64.449219 36.433594 63.988281 C 36.128906 63.082031 35.996094 61.957031 36.035156 60.609375 C 36.085938 59.199219 36.226562 57.796875 36.46875 56.40625 C 36.671875 55.226562 36.929688 54.054688 37.238281 52.898438 C 37.546875 51.738281 37.855469 50.707031 38.160156 49.800781 C 37.199219 49.925781 36.339844 49.90625 35.582031 49.738281 C 35.214844 49.65625 34.867188 49.558594 34.539062 49.449219 C 34.234375 50.449219 33.875 51.429688 33.464844 52.390625 C 32.910156 53.742188 32.46875 54.78125 32.140625 55.515625 C 32.054688 55.464844 31.960938 55.421875 31.863281 55.394531 C 31.742188 55.332031 31.621094 55.28125 31.496094 55.238281 L 32.355469 53.210938 C 32.699219 52.328125 33.046875 51.410156 33.398438 50.460938 C 33.5625 49.996094 33.707031 49.542969 33.828125 49.101562 L 33.644531 48.976562 C 33.234375 48.742188 32.875 48.4375 32.570312 48.0625 C 32.304688 47.742188 32.097656 47.382812 31.953125 46.988281 C 31.730469 46.3125 31.78125 45.703125 32.109375 45.15625 C 32.433594 44.609375 33.015625 44.3125 33.855469 44.273438 L 33.949219 44.273438 C 34.253906 44.273438 34.492188 44.34375 34.652344 44.492188 C 34.871094 44.648438 35.011719 44.859375 35.085938 45.121094 C 35.207031 45.5 35.238281 45.984375 35.179688 46.578125 C 35.109375 47.183594 34.996094 47.785156 34.84375 48.375 Z M 33.980469 44.777344 C 33.347656 44.820312 33.101562 45.273438 33.242188 46.136719 C 33.347656 46.773438 33.664062 47.34375 34.195312 47.847656 C 34.296875 47.382812 34.398438 46.941406 34.5 46.519531 C 34.75 45.316406 34.578125 44.738281 33.980469 44.777344 Z M 33.980469 44.777344 " fill-opacity="1" fill-rule="nonzero"/></g><g clip-path="url(#1eb4f267ab)"><path fill="#ffffff" d="M 60.269531 54.585938 C 60.148438 54.542969 60.023438 54.515625 59.894531 54.515625 C 59.617188 55.167969 59.105469 56.246094 58.351562 57.742188 C 57.621094 59.230469 56.742188 60.621094 55.71875 61.917969 C 55.035156 62.757812 54.328125 63.4375 53.597656 63.949219 C 52.867188 64.464844 52.125 64.675781 51.371094 64.585938 C 50.277344 64.394531 49.363281 63.367188 48.632812 61.5 C 48.042969 59.980469 47.699219 58.285156 47.609375 56.414062 C 48.703125 56.039062 49.652344 55.582031 50.449219 55.046875 C 51.5 54.324219 52.320312 53.527344 52.914062 52.660156 C 53.28125 52.113281 53.578125 51.53125 53.800781 50.90625 C 54 50.363281 54.125 49.800781 54.175781 49.222656 C 54.289062 48.195312 54.175781 47.304688 53.835938 46.554688 C 53.496094 45.808594 53.027344 45.339844 52.429688 45.152344 C 52.074219 45.035156 51.710938 44.976562 51.335938 44.976562 C 51.035156 44.976562 50.738281 45.011719 50.445312 45.082031 C 49.765625 45.25 49.152344 45.554688 48.597656 45.992188 C 47.546875 46.835938 46.679688 48.074219 45.996094 49.710938 C 45.3125 51.347656 44.976562 53.136719 44.929688 55.074219 L 44.929688 55.457031 C 44.929688 58.3125 45.550781 60.550781 46.78125 62.183594 C 48.105469 63.890625 49.636719 64.894531 51.367188 65.085938 L 51.8125 65.085938 C 52.324219 65.089844 52.8125 64.984375 53.285156 64.777344 C 53.941406 64.472656 54.546875 64.074219 55.09375 63.589844 C 55.964844 62.796875 56.765625 61.828125 57.496094 60.683594 C 58.183594 59.632812 58.8125 58.546875 59.378906 57.421875 C 59.65625 56.886719 59.90625 56.371094 60.132812 55.878906 C 60.3125 55.503906 60.472656 55.121094 60.613281 54.726562 C 60.503906 54.660156 60.390625 54.613281 60.269531 54.585938 Z M 47.59375 55.109375 C 47.636719 53.554688 47.875 52.035156 48.316406 50.550781 C 48.75 49.007812 49.296875 47.789062 49.960938 46.90625 C 50.324219 46.410156 50.714844 46.050781 51.125 45.816406 C 51.53125 45.601562 51.953125 45.554688 52.390625 45.675781 C 52.894531 45.792969 53.257812 46.203125 53.484375 46.90625 C 53.710938 47.605469 53.769531 48.410156 53.65625 49.324219 C 53.566406 49.855469 53.417969 50.367188 53.222656 50.867188 C 52.980469 51.425781 52.683594 51.953125 52.332031 52.445312 C 51.757812 53.242188 50.972656 53.980469 49.96875 54.65625 C 49.308594 55.148438 48.539062 55.542969 47.601562 55.851562 L 47.601562 55.109375 Z M 47.59375 55.109375 " fill-opacity="1" fill-rule="nonzero"/></g><g clip-path="url(#d3749e6f17)"><path fill="#ffffff" d="M 61.597656 45.339844 C 61.539062 46.027344 61.496094 46.949219 61.472656 48.113281 C 61.449219 49.277344 61.46875 50.492188 61.535156 51.757812 C 61.554688 52.421875 61.59375 53.089844 61.660156 53.753906 C 61.695312 54.382812 61.769531 55.007812 61.871094 55.625 C 62.015625 56.730469 62.230469 57.667969 62.519531 58.433594 C 62.808594 59.203125 63.179688 59.605469 63.628906 59.640625 C 64.222656 59.699219 64.785156 59.160156 65.320312 58.023438 C 65.859375 56.824219 66.289062 55.589844 66.609375 54.3125 C 66.835938 53.398438 67.011719 52.546875 67.132812 51.757812 C 67.257812 50.96875 67.304688 50.359375 67.28125 49.925781 C 67.257812 49.113281 67.574219 48.792969 68.230469 48.960938 C 68.890625 49.128906 69.277344 49.535156 69.402344 50.175781 C 69.710938 52.792969 69.925781 55.566406 70.050781 58.496094 L 70.050781 58.863281 C 70.941406 58.078125 71.78125 57.269531 72.566406 56.4375 C 73.5625 55.421875 74.320312 54.25 74.839844 52.917969 C 74.984375 52.941406 75.214844 52.960938 75.519531 52.984375 C 75.105469 54.140625 74.515625 55.191406 73.746094 56.144531 C 72.945312 57.09375 72.09375 57.996094 71.195312 58.851562 L 70.074219 59.847656 C 70.121094 62.179688 69.996094 64.503906 69.703125 66.820312 C 69.527344 68.179688 69.257812 69.515625 68.894531 70.835938 C 68.546875 72.042969 68.070312 73.191406 67.464844 74.289062 C 66.824219 75.425781 65.871094 76.097656 64.609375 76.308594 C 64.394531 76.347656 64.175781 76.371094 63.953125 76.371094 C 63.019531 76.371094 62.253906 75.996094 61.65625 75.246094 C 61.261719 74.75 61.011719 74.085938 60.910156 73.253906 C 60.808594 72.421875 60.914062 71.394531 61.226562 70.171875 C 61.664062 68.636719 62.265625 67.289062 63.03125 66.125 C 63.773438 64.96875 64.621094 63.898438 65.578125 62.917969 C 66.175781 62.292969 66.800781 61.703125 67.445312 61.144531 L 67.847656 60.800781 L 67.847656 60.644531 C 67.847656 58.945312 67.808594 57.359375 67.726562 55.890625 C 67.640625 54.417969 67.558594 53.265625 67.476562 52.4375 C 67.476562 52.667969 67.386719 53.132812 67.203125 53.839844 C 67.015625 54.636719 66.792969 55.425781 66.527344 56.199219 C 66.183594 57.167969 65.742188 58.089844 65.210938 58.964844 C 64.695312 59.8125 64.144531 60.207031 63.554688 60.148438 C 62.859375 60.09375 62.257812 59.824219 61.746094 59.339844 C 61.222656 58.816406 60.804688 58.214844 60.492188 57.539062 C 60.191406 56.898438 59.957031 56.234375 59.785156 55.546875 C 59.601562 54.796875 59.460938 54.039062 59.363281 53.273438 C 59.195312 51.941406 59.113281 50.605469 59.109375 49.261719 L 59.109375 48.847656 C 59.128906 47.351562 59.191406 46.09375 59.296875 45.074219 C 59.378906 44.535156 59.644531 44.265625 60.09375 44.265625 C 60.207031 44.265625 60.320312 44.273438 60.433594 44.292969 C 61.066406 44.46875 61.457031 44.820312 61.597656 45.339844 Z M 67.429688 62.246094 C 66.257812 63.351562 65.1875 64.542969 64.207031 65.824219 C 63.226562 67.132812 62.5 68.65625 62.027344 70.402344 C 61.738281 71.417969 61.605469 72.289062 61.628906 73.015625 C 61.652344 73.742188 61.765625 74.3125 61.96875 74.722656 C 62.375 75.511719 63 75.78125 63.839844 75.535156 C 64.679688 75.285156 65.40625 74.570312 66.019531 73.386719 C 66.449219 72.496094 66.796875 71.425781 67.0625 70.175781 C 67.339844 68.871094 67.535156 67.554688 67.648438 66.222656 C 67.730469 65.289062 67.792969 64.355469 67.832031 63.417969 C 67.832031 62.878906 67.84375 62.339844 67.863281 61.800781 Z M 67.429688 62.246094 " fill-opacity="1" fill-rule="nonzero"/></g><g clip-path="url(#f57b241b72)"><g clip-path="url(#1a0f2f3bfb)"><g clip-path="url(#1734441833)"><path fill="#ffffff" d="M 146.34375 71.28125 C 146 70.785156 145.953125 70.097656 146.25 69.617188 C 146.28125 69.574219 146.308594 69.511719 146.34375 69.472656 C 146.410156 69.410156 146.472656 69.328125 146.539062 69.242188 C 146.539062 69.242188 146.546875 69.234375 146.542969 69.226562 C 146.550781 69.222656 146.550781 69.222656 146.550781 69.222656 C 146.820312 68.828125 147.039062 68.246094 147.160156 67.820312 C 147.121094 67.589844 147.054688 67.335938 146.953125 67.046875 C 146.484375 65.570312 144.949219 64.253906 142.339844 63.070312 C 140.859375 62.371094 139.058594 61.785156 136.933594 61.316406 C 134.726562 60.855469 132.128906 60.59375 129.136719 60.546875 C 122.660156 60.492188 116.605469 61.402344 110.972656 63.273438 C 105.421875 65.140625 99.710938 66.980469 93.820312 68.796875 C 90.609375 69.851562 87.328125 70.75 83.996094 71.484375 C 80.664062 72.21875 77.101562 72.726562 73.316406 73.003906 C 65.078125 73.613281 58.738281 72.953125 54.320312 71.019531 C 53.308594 70.5625 52.398438 70.164062 51.558594 69.820312 C 51.429688 69.558594 51.292969 69.296875 51.15625 69.035156 C 51.132812 68.742188 51.113281 68.449219 51.097656 68.15625 C 52.136719 68.609375 53.320312 69.117188 54.695312 69.699219 C 59.199219 71.539062 65.3125 72.179688 73.066406 71.617188 C 79.660156 71.164062 85.773438 69.910156 91.382812 67.871094 C 97.074219 65.816406 102.832031 63.972656 108.644531 62.332031 C 111.796875 61.453125 115.050781 60.71875 118.402344 60.152344 C 121.746094 59.582031 125.246094 59.34375 128.910156 59.410156 C 132.488281 59.492188 135.511719 59.800781 137.96875 60.320312 C 140.351562 60.933594 142.285156 61.636719 143.773438 62.417969 C 146.660156 63.996094 148.242188 65.691406 148.503906 67.519531 L 148.5625 68.144531 C 148.582031 68.316406 148.589844 68.472656 148.589844 68.621094 C 148.640625 68.984375 148.71875 69.347656 148.820312 69.65625 C 148.890625 69.878906 148.921875 70.117188 148.949219 70.351562 C 149.003906 70.929688 148.527344 71.597656 147.898438 71.816406 " fill-opacity="1" fill-rule="nonzero"/></g></g></g><g clip-path="url(#f3572a0127)"><path fill="#ffffff" d="M 85.667969 49.53125 C 85.460938 49.53125 85.320312 49.492188 85.246094 49.414062 C 85.152344 49.332031 85.101562 49.230469 85.085938 49.109375 C 85.832031 48.550781 86.203125 47.632812 86.203125 46.363281 C 86.203125 45.09375 85.816406 44.050781 85.046875 43.234375 C 84.816406 42.976562 84.550781 42.761719 84.25 42.585938 C 83.910156 42.410156 83.550781 42.300781 83.171875 42.253906 C 82.519531 42.175781 81.890625 42.25 81.28125 42.484375 C 80.675781 42.746094 80.136719 43.101562 79.660156 43.550781 C 78.734375 44.417969 77.960938 45.574219 77.347656 47.019531 C 76.734375 48.464844 76.296875 49.964844 76.035156 51.511719 C 75.949219 52.09375 75.894531 52.679688 75.875 53.269531 C 75.824219 53.917969 75.824219 54.566406 75.875 55.214844 C 75.910156 56.371094 76.101562 57.5 76.453125 58.601562 C 76.785156 59.617188 77.300781 60.136719 77.996094 60.167969 C 78.304688 60.191406 78.640625 60.066406 79.003906 59.785156 C 79.367188 59.507812 79.6875 59.113281 79.964844 58.601562 C 80.578125 57.6875 81.117188 56.457031 81.582031 54.90625 C 82.054688 53.316406 82.339844 51.691406 82.4375 50.03125 C 82.46875 49.824219 82.546875 49.632812 82.667969 49.460938 C 82.769531 49.328125 82.898438 49.226562 83.050781 49.15625 C 83.484375 48.976562 83.933594 49.066406 84.398438 49.421875 C 84.867188 49.78125 85.097656 50.164062 85.09375 50.566406 C 85.015625 51.28125 84.898438 52.222656 84.746094 53.390625 C 84.59375 54.5625 84.492188 55.78125 84.4375 57.046875 C 84.289062 58.8125 84.25 60.578125 84.324219 62.34375 C 84.398438 63.972656 84.71875 64.824219 85.285156 64.898438 C 85.847656 64.976562 86.605469 64.316406 87.550781 62.917969 C 88.582031 61.382812 89.515625 59.796875 90.359375 58.152344 C 90.972656 56.960938 91.535156 55.792969 92.050781 54.648438 C 92.5625 53.507812 93 52.542969 93.355469 51.75 C 93.480469 51.8125 93.609375 51.863281 93.742188 51.902344 C 93.894531 51.953125 94.023438 52.042969 94.125 52.171875 C 93.792969 52.960938 93.382812 53.875 92.894531 54.917969 C 92.410156 55.960938 91.894531 57.003906 91.359375 58.046875 C 90.410156 59.875 89.332031 61.628906 88.128906 63.304688 C 87.050781 64.804688 86.101562 65.554688 85.28125 65.554688 L 85.167969 65.554688 C 84.730469 65.507812 84.347656 65.34375 84.011719 65.0625 C 83.683594 64.75 83.414062 64.394531 83.207031 63.992188 C 82.953125 63.507812 82.761719 62.996094 82.628906 62.464844 C 82.496094 61.886719 82.394531 61.300781 82.320312 60.710938 C 82.171875 59.609375 82.09375 58.503906 82.09375 57.394531 C 82.117188 56.351562 82.128906 55.613281 82.128906 55.179688 C 82.054688 55.460938 81.863281 55.992188 81.554688 56.78125 C 81.21875 57.59375 80.792969 58.359375 80.277344 59.070312 C 79.949219 59.519531 79.566406 59.914062 79.121094 60.25 C 78.738281 60.582031 78.335938 60.734375 77.921875 60.707031 C 77.175781 60.65625 76.53125 60.464844 75.988281 60.136719 C 75.449219 59.773438 74.996094 59.328125 74.625 58.800781 C 73.941406 57.808594 73.523438 56.605469 73.375 55.183594 C 73.273438 54.511719 73.222656 53.839844 73.222656 53.160156 C 73.222656 52.507812 73.273438 51.859375 73.378906 51.214844 C 73.789062 48.296875 74.890625 45.90625 76.6875 44.046875 C 78.195312 42.472656 79.972656 41.683594 82.023438 41.683594 C 82.433594 41.683594 82.84375 41.710938 83.253906 41.761719 C 83.867188 41.851562 84.429688 42.066406 84.945312 42.410156 C 85.402344 42.761719 85.789062 43.183594 86.097656 43.667969 C 86.660156 44.585938 86.90625 45.625 86.828125 46.796875 C 86.753906 47.964844 86.367188 48.875 85.667969 49.53125 Z M 85.667969 49.53125 " fill-opacity="1" fill-rule="nonzero"/></g><g clip-path="url(#8dd5e14b9a)"><path fill="#ffffff" d="M 94.320312 45.304688 C 94.507812 46.457031 94.660156 47.652344 94.777344 48.898438 C 94.898438 50.140625 94.992188 51.359375 95.058594 52.5625 C 95.105469 52.25 95.171875 51.941406 95.265625 51.644531 C 95.378906 51.128906 95.515625 50.625 95.683594 50.128906 C 96.050781 48.9375 96.488281 47.777344 97.003906 46.644531 C 97.554688 45.402344 98.210938 44.382812 98.972656 43.585938 C 99.3125 43.183594 99.714844 42.855469 100.175781 42.601562 C 100.566406 42.390625 100.980469 42.285156 101.421875 42.289062 L 101.566406 42.289062 C 102.371094 42.339844 103.007812 42.667969 103.46875 43.273438 C 103.933594 43.878906 104.289062 44.675781 104.539062 45.667969 C 104.769531 46.679688 104.90625 47.839844 104.957031 49.152344 C 105 50.476562 104.976562 51.804688 104.882812 53.128906 C 104.859375 53.996094 104.8125 54.863281 104.746094 55.734375 C 104.675781 56.605469 104.609375 57.414062 104.539062 58.160156 C 104.421875 59.59375 104.367188 60.78125 104.367188 61.714844 C 104.367188 62.652344 104.492188 63.167969 104.746094 63.265625 C 105.054688 63.3125 105.347656 63.253906 105.617188 63.089844 C 105.984375 62.863281 106.316406 62.589844 106.617188 62.273438 C 107.242188 61.589844 107.878906 60.6875 108.523438 59.558594 C 109.171875 58.433594 109.796875 57.25 110.398438 56.003906 C 111.003906 54.761719 111.535156 53.589844 111.996094 52.488281 C 112.457031 51.382812 112.789062 50.574219 113 50.058594 C 113.128906 50.058594 113.253906 50.070312 113.382812 50.097656 C 113.523438 50.121094 113.660156 50.152344 113.796875 50.199219 C 113.566406 50.785156 113.207031 51.65625 112.722656 52.804688 C 112.234375 53.957031 111.652344 55.179688 110.984375 56.46875 C 110.359375 57.738281 109.691406 58.957031 108.972656 60.132812 C 108.253906 61.308594 107.535156 62.234375 106.816406 62.917969 C 106.476562 63.253906 106.097656 63.539062 105.675781 63.761719 C 105.445312 63.875 105.203125 63.933594 104.949219 63.9375 C 104.84375 63.9375 104.742188 63.925781 104.640625 63.902344 C 103.945312 63.761719 103.414062 63.351562 103.042969 62.671875 C 102.675781 61.992188 102.433594 61.15625 102.3125 60.167969 C 102.167969 58.984375 102.125 57.800781 102.175781 56.613281 C 102.226562 55.296875 102.304688 53.996094 102.417969 52.707031 C 102.488281 51.839844 102.558594 50.992188 102.628906 50.171875 C 102.699219 49.351562 102.734375 48.566406 102.730469 47.8125 C 102.796875 46.453125 102.738281 45.316406 102.554688 44.398438 C 102.375 43.484375 101.972656 43.023438 101.347656 43.023438 C 100.636719 42.976562 99.875 43.457031 99.070312 44.46875 C 98.265625 45.480469 97.539062 46.792969 96.890625 48.410156 C 96.503906 49.300781 96.183594 50.214844 95.921875 51.15625 C 95.621094 52.160156 95.378906 53.179688 95.195312 54.214844 L 95.121094 56.609375 C 95.074219 57.40625 95.050781 58.179688 95.050781 58.933594 C 94.90625 59.519531 94.539062 59.765625 93.953125 59.667969 C 93.363281 59.574219 93.023438 59 92.933594 57.945312 L 92.933594 53.929688 C 92.960938 52.40625 92.914062 50.914062 92.796875 49.457031 C 92.753906 48.726562 92.675781 47.996094 92.554688 47.273438 C 92.476562 46.640625 92.347656 46.019531 92.171875 45.410156 C 92.335938 45.011719 92.640625 44.777344 93.082031 44.703125 C 93.527344 44.628906 93.941406 44.832031 94.320312 45.304688 Z M 94.320312 45.304688 " fill-opacity="1" fill-rule="nonzero"/></g><g clip-path="url(#7a0f17c5c8)"><path fill="#ffffff" d="M 126.871094 55.953125 C 126.464844 55.234375 125.894531 54.65625 125.21875 54.183594 C 124.492188 53.679688 123.695312 53.320312 122.875 52.996094 C 121.882812 52.601562 120.859375 52.289062 119.839844 51.96875 C 118.871094 51.660156 117.902344 51.339844 116.96875 50.925781 C 116.273438 50.617188 115.601562 50.265625 114.996094 49.800781 C 114.523438 49.4375 114.113281 49.019531 113.84375 48.480469 C 113.421875 47.632812 113.359375 46.761719 113.710938 45.875 C 113.964844 45.234375 114.40625 44.734375 114.9375 44.300781 C 115.324219 43.984375 115.78125 43.808594 116.253906 43.660156 C 116.929688 43.453125 117.625 43.339844 118.328125 43.292969 C 118.859375 43.257812 119.386719 43.257812 119.914062 43.3125 C 120.347656 43.351562 120.777344 43.425781 121.199219 43.527344 C 121.992188 43.722656 122.730469 44.039062 123.390625 44.511719 C 123.441406 44.550781 123.457031 44.578125 123.425781 44.640625 C 123.238281 45 123.09375 45.375 122.992188 45.765625 C 122.824219 46.410156 122.746094 47.0625 122.851562 47.726562 C 122.898438 48.003906 122.972656 48.277344 123.148438 48.503906 C 123.3125 48.71875 123.535156 48.808594 123.792969 48.726562 C 123.988281 48.667969 124.175781 48.585938 124.355469 48.492188 C 124.664062 48.335938 124.964844 48.160156 125.210938 47.914062 C 125.980469 47.128906 126.121094 45.925781 125.558594 44.964844 C 125.335938 44.582031 125.050781 44.253906 124.703125 43.976562 C 124.667969 43.945312 124.644531 43.921875 124.675781 43.875 C 124.910156 43.464844 125.199219 43.097656 125.554688 42.785156 C 125.640625 42.707031 125.730469 42.691406 125.828125 42.722656 C 125.902344 42.746094 125.964844 42.746094 126.027344 42.710938 C 126.242188 42.601562 126.457031 42.492188 126.667969 42.375 C 126.765625 42.320312 126.859375 42.246094 126.945312 42.175781 C 127.007812 42.125 127 42.078125 126.925781 42.054688 C 126.859375 42.035156 126.785156 42.019531 126.71875 42.03125 C 126.585938 42.054688 126.457031 42.082031 126.335938 42.128906 C 125.527344 42.453125 124.796875 42.898438 124.199219 43.53125 C 124.160156 43.574219 124.128906 43.578125 124.078125 43.550781 C 123.003906 42.921875 121.824219 42.660156 120.597656 42.585938 C 119.894531 42.542969 119.199219 42.585938 118.503906 42.695312 C 118.046875 42.765625 117.59375 42.863281 117.148438 43 C 116.082031 43.332031 115.105469 43.839844 114.203125 44.496094 C 113.679688 44.875 113.210938 45.3125 112.863281 45.863281 C 112.15625 47 112.128906 48.15625 112.789062 49.320312 C 113.078125 49.824219 113.5 50.214844 113.96875 50.558594 C 114.636719 51.050781 115.375 51.414062 116.136719 51.734375 C 116.914062 52.066406 117.714844 52.332031 118.515625 52.589844 C 119.332031 52.847656 120.148438 53.109375 120.957031 53.386719 C 121.808594 53.675781 122.636719 54.015625 123.421875 54.449219 C 124.132812 54.84375 124.769531 55.335938 125.28125 55.972656 C 126.003906 56.871094 126.304688 57.882812 126.113281 59.019531 C 125.878906 60.40625 125.230469 61.5625 124.144531 62.476562 C 123.589844 62.941406 122.957031 63.277344 122.289062 63.550781 C 121.664062 63.804688 121.015625 63.992188 120.355469 64.144531 C 119.734375 64.289062 119.109375 64.378906 118.476562 64.417969 C 117.824219 64.460938 117.175781 64.441406 116.527344 64.367188 C 115.996094 64.308594 115.472656 64.226562 114.957031 64.097656 C 114.074219 63.882812 113.238281 63.554688 112.4375 63.132812 C 111.859375 62.832031 111.324219 62.460938 110.867188 61.988281 C 110.3125 61.414062 110.011719 60.726562 109.960938 59.933594 C 109.917969 59.285156 110.039062 58.65625 110.234375 58.039062 C 110.460938 57.335938 110.808594 56.6875 111.203125 56.0625 C 111.542969 55.519531 111.886719 54.984375 112.230469 54.445312 C 112.253906 54.40625 112.273438 54.363281 112.292969 54.328125 C 112.289062 54.320312 112.28125 54.308594 112.277344 54.300781 C 112.222656 54.320312 112.164062 54.328125 112.113281 54.351562 C 111.878906 54.472656 111.652344 54.597656 111.421875 54.726562 C 111.296875 54.796875 111.199219 54.898438 111.117188 55.015625 C 110.972656 55.230469 110.820312 55.441406 110.679688 55.660156 C 110.292969 56.261719 109.886719 56.855469 109.558594 57.492188 C 109.140625 58.304688 108.855469 59.152344 108.792969 60.066406 C 108.753906 60.726562 108.867188 61.355469 109.191406 61.941406 C 109.464844 62.441406 109.859375 62.835938 110.3125 63.179688 C 111.183594 63.84375 112.179688 64.273438 113.214844 64.609375 C 113.832031 64.8125 114.472656 64.945312 115.121094 65.015625 C 115.5625 65.0625 116.003906 65.109375 116.445312 65.125 C 117.195312 65.15625 117.941406 65.089844 118.683594 64.960938 C 119.390625 64.839844 120.082031 64.667969 120.757812 64.441406 C 121.644531 64.152344 122.484375 63.769531 123.292969 63.316406 C 124.082031 62.878906 124.828125 62.382812 125.488281 61.761719 C 126.484375 60.816406 127.082031 59.667969 127.289062 58.320312 C 127.417969 57.488281 127.285156 56.695312 126.871094 55.953125 Z M 124.03125 45.738281 C 124.054688 45.601562 124.085938 45.464844 124.113281 45.328125 C 124.121094 45.300781 124.128906 45.277344 124.144531 45.230469 C 124.46875 45.667969 124.695312 46.117188 124.738281 46.644531 C 124.773438 47.113281 124.65625 47.546875 124.429688 47.976562 C 124.382812 47.929688 124.34375 47.898438 124.3125 47.859375 C 124.191406 47.714844 124.125 47.542969 124.074219 47.363281 C 123.929688 46.824219 123.949219 46.285156 124.03125 45.738281 Z M 124.03125 45.738281 " fill-opacity="1" fill-rule="nonzero"/></g><g clip-path="url(#eceb55372f)"><path fill="#ffffff" d="M 126.351562 58.871094 C 126.433594 58.277344 126.738281 57.304688 127.261719 55.960938 C 127.777344 54.65625 128.417969 53.421875 129.183594 52.253906 C 129.664062 51.53125 130.230469 50.894531 130.882812 50.332031 C 131.46875 49.796875 132.0625 49.53125 132.671875 49.53125 C 133.367188 49.507812 133.921875 49.722656 134.339844 50.167969 C 134.757812 50.617188 135.074219 51.210938 135.285156 51.953125 C 135.535156 52.847656 135.671875 53.882812 135.691406 55.058594 C 135.714844 56.234375 135.691406 57.429688 135.628906 58.640625 C 135.542969 60.433594 135.445312 62.046875 135.34375 63.472656 C 135.238281 64.902344 135.363281 65.652344 135.71875 65.71875 C 135.96875 65.78125 136.230469 65.730469 136.507812 65.554688 C 136.832031 65.347656 137.125 65.101562 137.386719 64.820312 C 137.972656 64.222656 138.558594 63.402344 139.144531 62.355469 C 139.730469 61.304688 140.296875 60.242188 140.84375 59.15625 C 141.386719 58.027344 141.871094 56.960938 142.292969 55.960938 C 142.714844 54.964844 143.019531 54.21875 143.203125 53.722656 C 143.320312 53.722656 143.4375 53.734375 143.550781 53.753906 C 143.675781 53.773438 143.792969 53.816406 143.898438 53.882812 C 143.710938 54.394531 143.394531 55.183594 142.957031 56.25 C 142.515625 57.3125 141.992188 58.421875 141.382812 59.574219 C 141.0625 60.195312 140.738281 60.800781 140.40625 61.398438 C 140.070312 61.992188 139.738281 62.570312 139.402344 63.125 C 138.75 64.128906 138.101562 64.941406 137.449219 65.558594 C 136.902344 66.070312 136.390625 66.339844 135.914062 66.363281 C 135.816406 66.359375 135.722656 66.347656 135.628906 66.328125 C 135 66.195312 134.515625 65.855469 134.175781 65.300781 C 133.839844 64.765625 133.609375 64.105469 133.484375 63.316406 C 133.351562 62.40625 133.296875 61.488281 133.324219 60.566406 C 133.347656 59.5625 133.398438 58.550781 133.484375 57.527344 C 133.527344 56.867188 133.570312 56.226562 133.609375 55.609375 C 133.648438 54.992188 133.6875 54.382812 133.730469 53.789062 C 133.75 52.746094 133.679688 51.882812 133.511719 51.199219 C 133.34375 50.519531 132.976562 50.175781 132.414062 50.171875 C 131.71875 50.171875 130.914062 50.855469 129.988281 52.21875 C 129.027344 53.660156 128.261719 55.207031 127.695312 56.851562 C 127.34375 57.769531 127.0625 58.707031 126.847656 59.667969 C 126.648438 60.519531 126.53125 61.382812 126.5 62.253906 C 126.375 62.769531 126.035156 62.992188 125.488281 62.925781 C 124.941406 62.859375 124.648438 62.328125 124.613281 61.332031 C 124.613281 59.6875 124.59375 57.832031 124.550781 55.769531 C 124.527344 54.445312 124.515625 53.113281 124.515625 51.769531 L 124.515625 49.507812 C 124.539062 48.121094 124.578125 46.765625 124.640625 45.441406 C 124.695312 44.175781 124.8125 42.917969 124.992188 41.664062 C 125.261719 39.488281 125.722656 37.710938 126.375 36.328125 C 127.023438 34.945312 127.914062 34.28125 129.046875 34.339844 L 129.203125 34.339844 C 129.640625 34.355469 130.015625 34.515625 130.332031 34.820312 C 130.671875 35.179688 130.925781 35.597656 131.089844 36.066406 C 131.425781 37.070312 131.542969 38.382812 131.4375 40 C 131.332031 41.617188 130.96875 43.378906 130.339844 45.28125 C 129.808594 46.953125 129.140625 48.5625 128.328125 50.113281 C 127.734375 51.28125 127.0625 52.398438 126.320312 53.472656 L 126.320312 53.632812 C 126.277344 55.699219 126.289062 57.445312 126.351562 58.871094 Z M 127.722656 50.027344 C 128.414062 48.601562 129 47.128906 129.472656 45.613281 C 129.996094 43.941406 130.351562 42.234375 130.542969 40.492188 C 130.710938 38.871094 130.699219 37.578125 130.511719 36.617188 C 130.425781 36.085938 130.28125 35.667969 130.074219 35.371094 C 129.867188 35.070312 129.617188 34.910156 129.320312 34.890625 C 129.070312 34.890625 128.839844 35.0625 128.632812 35.402344 C 128.421875 35.746094 128.222656 36.222656 128.039062 36.839844 C 127.683594 37.992188 127.390625 39.507812 127.164062 41.386719 C 126.933594 43.261719 126.734375 45.246094 126.5625 47.335938 C 126.457031 49.085938 126.375 50.800781 126.3125 52.484375 C 126.84375 51.703125 127.3125 50.882812 127.722656 50.027344 Z M 127.722656 50.027344 " fill-opacity="1" fill-rule="nonzero"/></g></svg>